<svg width="20" height="20" viewBox="0 0 20 20" fill="none" xmlns="http://www.w3.org/2000/svg">
<path fill-rule="evenodd" clip-rule="evenodd" d="M18.125 13.8549L18.125 13.8567C18.125 13.8567 18.1227 14.1933 17.9525 14.4838C17.9525 14.4838 17.7819 14.7752 17.4883 14.9419L10.6111 18.8103C10.6111 18.8103 10.3307 18.9722 10 18.9722C10 18.9722 9.66925 18.9722 9.38282 18.8069L2.5139 14.9431C2.5139 14.9431 2.21809 14.7752 2.04746 14.4838C2.04746 14.4838 1.87682 14.1925 1.87501 13.8549L1.875 6.14841C1.875 6.14841 1.87682 5.80744 2.04746 5.51611C2.04746 5.51611 2.21809 5.22478 2.51168 5.05806L9.3889 1.18962C9.3889 1.18962 9.66925 1.02771 10 1.02771C10 1.02771 10.3307 1.02771 10.6172 1.19308L17.4861 5.0568C17.4861 5.0568 17.7819 5.22478 17.9525 5.51611C17.9525 5.51611 18.1232 5.80744 18.125 6.14506L18.125 13.8515L18.125 13.8549ZM16.875 6.15177L16.875 13.8482C16.875 13.8482 16.8749 13.8504 16.8739 13.8521C16.8739 13.8521 16.8736 13.8527 16.8729 13.8534C16.8724 13.8539 16.8718 13.8545 16.8711 13.8549L9.99996 17.7199L3.12682 13.8537C3.12682 13.8537 3.12695 13.8536 3.12606 13.8521C3.12606 13.8521 3.125 13.8503 3.12499 13.8482L3.125 6.14841C3.125 6.14841 3.12539 6.14901 3.12606 6.14786C3.12606 6.14786 3.12712 6.14605 3.12895 6.14502L10 2.28003L16.8732 6.14625C16.8733 6.14649 16.8736 6.14721 16.8739 6.14786C16.8739 6.14786 16.875 6.14967 16.875 6.15177Z" fill="#1C1C1C"/>
<path d="M10.0674 9.28284L2.89021 5.28221C2.79717 5.23035 2.69242 5.20312 2.58591 5.20312L2.58069 5.20315C2.52466 5.20361 2.46895 5.21161 2.41506 5.22693C2.25561 5.27224 2.12069 5.37904 2.03999 5.52382C1.98813 5.61686 1.96091 5.72161 1.96091 5.82812L1.96093 5.83334C1.9614 5.88937 1.9694 5.94508 1.98471 5.99897C2.03002 6.15842 2.13682 6.29334 2.28161 6.37404L9.76598 10.5459C9.95672 10.6522 10.1891 10.6513 10.379 10.5434L17.7227 6.37156C17.8669 6.28968 17.9726 6.1539 18.0166 5.99409C18.0315 5.94003 18.039 5.8842 18.039 5.82812L18.0388 5.81278C18.0363 5.70978 18.0084 5.609 17.9575 5.51941C17.8464 5.3239 17.6389 5.20312 17.414 5.20312C17.4058 5.20312 17.3976 5.20329 17.3894 5.20361C17.2896 5.20755 17.1922 5.23535 17.1053 5.28469L10.0674 9.28284Z" fill="#1C1C1C"/>
<path d="M9.37502 18.3385L9.375 18.3438C9.375 18.3802 9.37818 18.4165 9.3845 18.4523C9.43683 18.7491 9.69343 18.9662 9.99473 18.9688C10.0047 18.9688 10.0148 18.9687 10.0248 18.9683C10.18 18.9621 10.3274 18.8984 10.4382 18.7894C10.5564 18.6732 10.6236 18.5148 10.625 18.349L10.6953 10.0054L10.6953 10C10.6953 9.99177 10.6951 9.98352 10.6948 9.97527C10.6887 9.82001 10.6249 9.67262 10.516 9.56183C10.3997 9.44363 10.2413 9.37645 10.0756 9.37505L10.0703 9.37503C10.0621 9.37503 10.0538 9.37519 10.0456 9.37552C9.8903 9.38168 9.7429 9.44544 9.63211 9.55438C9.51392 9.6706 9.44673 9.82901 9.44533 9.99476L9.37502 18.3385Z" fill="#1C1C1C"/>
<path d="M6.4787 3.16647L10 5.14989L13.5211 3.16656C13.6148 3.11382 13.7207 3.08597 13.8281 3.08597C13.8812 3.08597 13.9341 3.09274 13.9855 3.10611L13.9963 3.10902C14.1422 3.14978 14.2683 3.24216 14.3512 3.36896C14.3588 3.38048 14.3659 3.39225 14.3727 3.40424C14.4254 3.49787 14.4531 3.60351 14.4531 3.71097C14.4531 3.92193 14.3467 4.11865 14.1701 4.23409C14.1586 4.24162 14.1468 4.24877 14.1349 4.25552L10.3067 6.41177C10.1163 6.51903 9.88369 6.51903 9.69327 6.41177L5.86524 4.25558C5.72191 4.17485 5.61623 4.04099 5.571 3.88294L5.56992 3.87914C5.55463 3.82439 5.54688 3.76781 5.54688 3.71097C5.54688 3.61108 5.57082 3.51264 5.6167 3.42391C5.62012 3.41729 5.62366 3.41073 5.62732 3.40424C5.708 3.26101 5.84186 3.15533 5.9999 3.11009L6.00371 3.10902C6.05845 3.09372 6.11503 3.08597 6.17188 3.08597C6.27177 3.08597 6.3702 3.10991 6.45893 3.15579C6.46555 3.15921 6.47211 3.16275 6.4787 3.16647Z" fill="#1C1C1C"/>
<path d="M17.8064 10.4589C18.0032 10.3482 18.125 10.1399 18.125 9.91412C18.125 9.90679 18.1249 9.89946 18.1246 9.89213C18.1211 9.79231 18.0937 9.69477 18.0447 9.60771C17.9635 9.46324 17.8281 9.35696 17.6685 9.31227C17.6137 9.29691 17.557 9.28912 17.5 9.28912L17.4873 9.28925C17.3843 9.29134 17.2834 9.31887 17.1936 9.36939L13.4436 11.4788C13.2468 11.5895 13.125 11.7977 13.125 12.0235V16.3282C13.125 16.6734 13.4048 16.9532 13.75 16.9532C14.0952 16.9532 14.375 16.6734 14.375 16.3282V12.389L17.8064 10.4589Z" fill="#1C1C1C"/>
<path d="M6.55641 11.4788L2.80641 9.36939C2.71286 9.31677 2.60734 9.28912 2.5 9.28912L2.49721 9.28913C2.44118 9.28938 2.38544 9.29716 2.33148 9.31227C2.17186 9.35696 2.03653 9.46324 1.95527 9.60771C1.90264 9.70126 1.875 9.80679 1.875 9.91412L1.87501 9.91692C1.87526 9.97295 1.88304 10.0287 1.89815 10.0826C1.94284 10.2423 2.04911 10.3776 2.19359 10.4589L5.625 12.389V16.3282C5.625 16.6734 5.90482 16.9532 6.25 16.9532C6.59518 16.9532 6.875 16.6734 6.875 16.3282V12.0235C6.875 11.7977 6.75321 11.5895 6.55641 11.4788Z" fill="#1C1C1C"/>
</svg>
